<?xml version="1.0" encoding="UTF-8"?>
<svg id="Layer_2" xmlns="http://www.w3.org/2000/svg" version="1.1" viewBox="0 0 580.9 69.9">
  <!-- Generator: Adobe Illustrator 29.5.0, SVG Export Plug-In . SVG Version: 2.1.0 Build 137)  -->
  <defs>
    <style>
      .st0 {
        fill: #231f20;
      }
    </style>
  </defs>
  <g id="Layer_1-2">
    <g>
      <path class="st0" d="M371,9.5c.8,0,1.5,0,2.2.3s1.5.5,2.3.9v2.4c-.8-.5-1.6-.8-2.3-1-.7-.2-1.4-.3-2.2-.3s-1.8.2-2.5.6c-.8.4-1.4.9-1.8,1.6-.4.7-.6,1.5-.6,2.4s.2,1.7.6,2.4c.4.7,1,1.2,1.8,1.6.8.4,1.6.6,2.6.6s1.4-.1,2.1-.3c.7-.2,1.5-.6,2.5-1.1v2.4c-.9.5-1.6.8-2.4,1-.7.2-1.6.3-2.5.3-1.4,0-2.6-.3-3.7-.8-1.1-.6-2-1.4-2.6-2.4-.6-1-.9-2.2-.9-3.4s.3-2.5,1-3.6c.6-1.1,1.5-1.9,2.7-2.4,1.1-.6,2.4-.9,3.8-.9"/>
      <path class="st0" d="M384.6,17.8h4.3l-2.2-5.2-2,5.2h0ZM388,9.7l5.9,13.2h-2.7l-1.4-3.2h-5.9l-1.3,3.2h-2.7l5.5-13.2h2.6Z"/>
      <path class="st0" d="M402.7,9.5c1.3,0,2.5.3,3.7,1v2.3c-1.4-.8-2.6-1.2-3.6-1.2s-1.1.1-1.5.4c-.4.2-.5.6-.5,1s.3,1,1,1.4c.2.1.9.5,2.2,1.1,1.1.5,1.9,1.1,2.4,1.7.5.6.7,1.4.7,2.3s-.4,2.1-1.2,2.8c-.8.7-1.9,1-3.2,1s-1.6,0-2.2-.3-1.3-.5-2-1v-2.5c1.4,1.2,2.8,1.8,4,1.8s1.1-.1,1.5-.4c.4-.3.6-.6.6-1.1s-.3-1.1-1-1.5c-.6-.3-1.3-.7-2.1-1.1-1-.5-1.8-1-2.3-1.7s-.8-1.4-.8-2.2.4-2,1.2-2.7,1.9-1,3.3-1"/>
      <rect class="st0" x="413.2" y="9.7" width="2.6" height="13.2"/>
      <polygon class="st0" points="424.4 9.7 432.3 18.9 432.3 9.7 434.8 9.7 434.8 22.9 432.6 22.9 424.7 13.5 424.7 22.9 422.2 22.9 422.2 9.7 424.4 9.7"/>
      <g>
        <path class="st0" d="M443,16.3c0,.9.2,1.7.6,2.4s1,1.2,1.7,1.6c.7.4,1.5.6,2.4.6,1.4,0,2.5-.4,3.4-1.3.9-.9,1.3-2,1.3-3.3s-.2-1.7-.6-2.4c-.4-.7-1-1.2-1.7-1.6s-1.5-.6-2.4-.6-1.7.2-2.4.6c-.7.4-1.3.9-1.6,1.6-.4.7-.6,1.5-.6,2.4M447.6,9.5c1.4,0,2.6.3,3.7.9,1.1.6,2,1.4,2.6,2.4.6,1.1,1,2.2,1,3.5s-.3,2.4-1,3.5c-.6,1.1-1.5,1.9-2.6,2.5s-2.4.9-3.8.9-2.6-.3-3.7-.9-2-1.4-2.6-2.5c-.6-1-.9-2.2-.9-3.5s.3-2.4.9-3.4,1.5-1.9,2.6-2.5,2.4-.9,3.8-.9"/>
        <path class="st0" d="M469.5,12.8c0,.3.1.6.4,1s.5.7.8,1c.5-.3.8-.6,1.1-.9.3-.3.4-.6.4-1s-.1-.7-.4-.9-.6-.4-1-.4-.7.1-.9.3-.4.5-.4.8M468,19.6c0,.4.2.8.5,1.1.3.3.7.4,1.2.4.8,0,1.6-.4,2.4-1.1l-2.3-2.5c-.6.4-1,.7-1.3,1s-.5.7-.5,1.1M470.9,9.7c1,0,1.9.3,2.5.9.7.6,1,1.3,1,2.2s-.2,1.2-.6,1.8-1,1.1-1.8,1.7l1.8,2.1c.5-.5,1-1.2,1.5-2.1h2.4c-.6,1.5-1.4,2.8-2.4,3.7l2.7,3h-3.3l-1.2-1.4c-.7.6-1.3,1-1.9,1.2-.6.2-1.4.4-2.2.4s-2-.3-2.7-1-1.1-1.4-1.1-2.4.3-1.5.8-2.1,1.3-1.2,2.2-1.7c-.5-.6-.8-1.1-1-1.6-.2-.5-.3-.9-.3-1.4,0-1,.4-1.8,1.1-2.4.7-.6,1.6-.9,2.7-.9"/>
        <path class="st0" d="M493.1,15.3c.7,0,1.2-.2,1.6-.5.4-.3.6-.8.6-1.4s-.2-1.1-.6-1.4-.9-.4-1.6-.4h-1.6v3.7h1.6ZM493.7,9.7c1.2,0,2.3.4,3,1,.8.7,1.2,1.6,1.2,2.7s-.2,1.4-.6,2c-.4.6-1,1-1.7,1.3.4.2.8.5,1.1.9.3.4.7,1,1.2,2,.8,1.6,1.4,2.7,1.8,3.3h-2.9c-.2-.3-.5-.8-.8-1.4-.7-1.4-1.3-2.4-1.6-2.9s-.7-.8-1-1c-.3-.2-.7-.3-1.1-.3h-.9v5.6h-2.6v-13.2h4.8,0Z"/>
      </g>
      <polygon class="st0" points="513.5 9.7 513.5 11.7 507.5 11.7 507.5 15.2 513.2 15.2 513.2 17.2 507.5 17.2 507.5 20.9 513.6 20.9 513.6 22.9 504.9 22.9 504.9 9.7 513.5 9.7"/>
      <g>
        <path class="st0" d="M523.4,9.5c1.3,0,2.5.3,3.7,1v2.3c-1.4-.8-2.6-1.2-3.7-1.2s-1.2.1-1.5.4-.5.6-.5,1,.3,1,1,1.4c.2.1.9.5,2.2,1.1,1.1.5,1.9,1.1,2.3,1.7.5.6.7,1.4.7,2.3s-.4,2.1-1.2,2.8c-.8.7-1.9,1-3.2,1s-1.6,0-2.2-.3-1.3-.5-2-1v-2.5c1.4,1.2,2.8,1.8,4,1.8s1.1-.1,1.5-.4.6-.6.6-1.1-.3-1.1-1-1.5c-.6-.3-1.3-.7-2.2-1.1-1-.5-1.8-1-2.3-1.7s-.8-1.4-.8-2.2.4-2,1.2-2.7,1.9-1,3.3-1"/>
        <path class="st0" d="M535.5,16.3c0,.9.2,1.7.6,2.4.4.7,1,1.2,1.7,1.6.7.4,1.5.6,2.4.6,1.4,0,2.5-.4,3.3-1.3.9-.9,1.3-2,1.3-3.3s-.2-1.7-.6-2.4c-.4-.7-1-1.2-1.7-1.6-.7-.4-1.5-.6-2.4-.6s-1.7.2-2.4.6c-.7.4-1.3.9-1.7,1.6-.4.7-.6,1.5-.6,2.4M540.2,9.5c1.4,0,2.6.3,3.7.9,1.1.6,2,1.4,2.6,2.4.7,1.1,1,2.2,1,3.5s-.3,2.4-1,3.5c-.6,1.1-1.5,1.9-2.6,2.5s-2.4.9-3.8.9-2.6-.3-3.7-.9-2-1.4-2.6-2.5c-.6-1-.9-2.2-.9-3.5s.3-2.4.9-3.4c.6-1.1,1.5-1.9,2.6-2.5,1.1-.6,2.4-.9,3.8-.9"/>
        <path class="st0" d="M557.6,15.3c.7,0,1.2-.2,1.6-.5s.6-.8.6-1.4-.2-1.1-.6-1.4c-.4-.3-.9-.4-1.6-.4h-1.6v3.7h1.6ZM558.1,9.7c1.2,0,2.3.4,3,1,.8.7,1.2,1.6,1.2,2.7s-.2,1.4-.6,2c-.4.6-1,1-1.7,1.3.4.2.8.5,1.1.9s.7,1,1.2,2c.8,1.6,1.4,2.7,1.8,3.3h-2.8c-.2-.3-.5-.8-.8-1.4-.7-1.4-1.3-2.4-1.6-2.9-.3-.5-.7-.8-1-1-.3-.2-.7-.3-1.1-.3h-.9v5.6h-2.6v-13.2h4.8,0Z"/>
      </g>
      <polygon class="st0" points="568.4 9.7 568.4 11.7 573.1 11.7 573.1 22.9 575.7 22.9 575.7 11.7 580.4 11.7 580.4 9.7 568.4 9.7"/>
    </g>
    <g>
      <path class="st0" d="M67.5,12l-.2-4.8c-1.6-1.1-3.3-1.9-5.1-2.4-1.8-.5-3.6-.8-5.5-.8-4.9,0-8.8,1.5-11.8,4.5s-4.4,6.9-4.4,11.9.8,6.6,2.2,9.4c1.5,2.7,3.6,4.9,6.4,6.5,2.8,1.6,5.7,2.4,8.7,2.4s4.8-.3,7.2-.8c1.8-.4,3.6-1.3,5.4-2.6l.6.5c-.4.8-.7,1.7-1.1,2.5-2.1,1-4.3,1.8-6.4,2.4-2.2.5-4.3.8-6.5.8-4.5,0-8.4-.9-11.8-2.6-3.4-1.7-6-4.1-7.8-7.1s-2.7-6.5-2.7-10.3.9-7.2,2.8-10.3c1.8-3,4.4-5.4,7.8-7,3.3-1.7,7.5-2.5,12.3-2.5s5.5.4,9,1.2c1.7.4,3.1.7,4.2.9-.8,1.9-1.3,4.7-1.4,8.2h-1.8Z"/>
      <path class="st0" d="M88.1,25.3v6.1c0,1.1,0,2.3.1,3.7,0,2,.2,3.1.2,3.3,0,.2.3.4.6.7s1,.3,1.8.3h1.5v1.4c-1.9,0-3.8-.2-5.5-.2s-4.2,0-7.4.2v-1.4h1.4c1.5,0,2.4-.3,2.7-.8.3-.5.4-2.9.4-7.2v-13.3c0-3.8-.1-6-.4-6.6-.3-.5-1.1-.8-2.4-.8h-1.6v-1.4c2.4.1,4.7.1,6.8.1s4.1,0,6.1-.1v1.4h-.9c-1.4,0-2.2.1-2.5.3s-.5.6-.6,1.1c-.1.8-.2,2.8-.2,5.9v5c2.6.1,5.9.1,10,.1s6.2,0,8.3-.1v-4.3c0-2.5,0-4.6-.3-6.3,0-.6-.3-1-.6-1.3-.3-.3-1-.4-2.1-.4h-1.6v-1.4c2.2.1,4.4.1,6.4.1s4.4,0,6.8-.1v1.4h-1.7c-1.1,0-1.8.1-2.2.4s-.5.7-.6,1.4,0,2.8,0,6.3v12.2c0,4.5.1,7,.4,7.5s1.1.8,2.4.8h1.7v1.4c-2,0-4.1-.2-6.3-.2s-4.8,0-6.9.2v-1.4h1.5c1.1,0,1.8-.1,2.2-.4.3-.3.5-.7.6-1.4.2-1.5.2-3.7.2-6.6v-5.7c-2.1-.1-4.7-.1-7.9-.1-4.6,0-8,0-10.4.1"/>
      <path class="st0" d="M129.9,23.4c0,3.3.6,6.2,1.7,8.7,1.1,2.5,2.7,4.3,4.6,5.5,1.9,1.2,4.1,1.8,6.5,1.8s4.3-.5,6-1.6c1.7-1,3-2.6,4-4.7,1-2.1,1.5-4.6,1.5-7.5s-.5-5.8-1.6-8c-1.1-2.2-2.6-3.9-4.4-5s-4.1-1.7-6.7-1.7-4.4.5-6.1,1.5-3,2.4-4,4.3c-1,1.9-1.4,4.1-1.4,6.6M125.4,25.2c0-4.8,1.6-8.7,4.7-11.7,3.1-2.9,7.3-4.4,12.4-4.4s9.1,1.4,11.9,4.1c2.9,2.7,4.3,6.4,4.3,10.9s-1.7,9-5,12.2c-3.4,3.3-7.6,4.9-12.7,4.9s-5.9-.7-8.2-1.9c-2.3-1.3-4.1-3.2-5.5-5.7-1.3-2.5-2-5.3-2-8.5"/>
      <path class="st0" d="M197.3,17.5l-.2-3.9c-1.3-.9-2.7-1.5-4.1-1.9-1.4-.4-2.9-.6-4.5-.6-4,0-7.1,1.2-9.5,3.6-2.4,2.4-3.6,5.6-3.6,9.7s.6,5.4,1.8,7.6c1.2,2.2,2.9,4,5.2,5.3,2.2,1.3,4.6,1.9,7.1,1.9s3.9-.2,5.8-.7c1.4-.3,2.9-1,4.3-2.1l.5.4c-.3.7-.6,1.4-.9,2-1.7.8-3.4,1.5-5.2,1.9-1.7.4-3.5.7-5.2.7-3.6,0-6.8-.7-9.5-2.1-2.7-1.4-4.8-3.3-6.3-5.8-1.5-2.5-2.2-5.2-2.2-8.3s.7-5.9,2.2-8.3,3.6-4.3,6.3-5.7c2.7-1.3,6-2,10-2s4.5.3,7.3,1c1.4.3,2.5.6,3.4.7-.7,1.6-1,3.8-1.1,6.6h-1.5Z"/>
      <path class="st0" d="M224.4,11.6c-.2,2.2-.2,4.5-.2,6.9v12.5c0,4.7.1,7.2.4,7.7.2.5,1.1.7,2.5.7h1.6v1.4c-2.6,0-4.8-.2-6.6-.2s-4,0-6.6.2v-1.4h1.9c1,0,1.6-.1,1.9-.4.3-.3.5-.8.6-1.5.1-1.7.2-3.9.2-6.6v-12.6c0-2.5,0-4.8-.1-6.8h-2.2c-3.6,0-5.6,0-6,.2-.4.2-.6.8-.7,2l-.3,2.9h-1.4v-2.6c0-1.1,0-2.6-.2-4.6,7.9.1,12.6.1,14,.1h12.2c-.3,2.3-.4,4.7-.5,7h-1.4l-.2-2.9c0-1-.2-1.6-.4-1.8-.2-.2-.5-.3-1.1-.3-1.6-.1-3.4-.2-5.5-.2h-1.7,0Z"/>
      <path class="st0" d="M251.1,28.5h11.1l-5.5-13.2-5.5,13.2h0ZM263.1,30.3h-12.7l-1.5,3.5c-1,2.3-1.5,3.8-1.5,4.3s0,.6.3.7c.2.2.6.3,1.4.3l2.1.2v1.4c-1.4,0-3-.2-4.8-.2s-4,0-5.6.2v-1.4h.7c1,0,1.7-.2,2-.3s.6-.6,1-1.3c1-2.1,2.1-4.4,3.2-6.8l6.1-13.7c1.6-3.6,2.7-6.3,3.3-7.9h1.5l11.1,25.9c.8,1.8,1.2,2.8,1.5,3.2s.5.6.9.8c.3.2,1,.3,2.2.3v1.4c-1.9,0-3.7-.2-5.5-.2s-3.8,0-6.5.2v-1.4h2.2c.8-.2,1.2-.3,1.4-.4.2-.2.3-.4.3-.6s-.2-1-.7-2.1l-2.4-6.1h0Z"/>
      <path class="st0" d="M293.3,34.2l5.1-12.6c.9-2.1,2.4-6.3,4.7-12.3h1.3c.9,2.7,2,6.1,3.5,10.3l5.3,14.9,4-13.9c.4-1.3,1-3.9,2-7.7,0-.3.1-.6.1-.8s-.1-.5-.3-.6-.8-.2-1.6-.3h-2v-1.5c2.1.1,3.7.1,4.9.1s2.8,0,4.7-.1v1.4h-1.1c-.5,0-.9.1-1.1.4-.5.5-1.6,3.6-3.3,9.2-2.3,7.6-4.3,14.5-5.8,20.7h-2.2c-.3-1-.5-1.7-.7-2.2-.6-1.9-2.1-6.1-4.5-12.5l-3.6-9.9-4.1,10c-2.5,6-4.3,10.8-5.5,14.6h-2.2l-1.2-5.4c-.3-1.6-.7-3.3-1.1-5.1l-3.8-16.5c-.4-1.6-.7-2.6-1-2.9-.3-.3-.9-.4-1.8-.4h-.9v-1.4c2.1.1,3.9.1,5.4.1s3.5,0,6-.1v1.4h-1.4c-1,0-1.6,0-2,.3-.3.2-.5.5-.5.9s0,.5.1.8l1.5,7.3,3.1,14h0Z"/>
      <path class="st0" d="M43.9,2.9c-.5,0-1.2.2-2,.4-1,.2-4.4,1.2-8.8,4.2-.9.6-4.5,3.2-8.1,7.8-3.8,4.8-5.6,9.2-6.7,11.6-.4,1-.8,2.2-1.1,3.1l2,2.4h-2.7c0,.3-.1.5-.1.5-.4,1.4-.6,2.6-.7,3.5-.3,2.4-.4,4.1-.4,4.1,0,.7,0,1.3-.1,2.3,0,1.1-.2,2-.3,2.6,0,0,0,0,0,0,2.5-1.2,5.8-3.3,8.5-6.7,1.4-1.7,3-4.9,3.7-6.3,0-.2.1-.3.2-.5l-4.4-1.3,5.4-1.3c.6-1.6,1.2-3.5,1.7-5l-3.8.4,4.5-2.8c.5-1.7,1-3.1,1-3.1.8-2.2,1.4-4,2.6-6.2,1.3-2.3,3.5-6.3,8-8.9.7-.4,1.2-.7,1.7-.9,0,0,0,0,0,0h0ZM36.4,6.8c-3.3,3-6.1,6.5-8.4,10.3-2.7,4.3-4.9,9-6.6,13.8-.5,1.3-.8,2.6-1.3,3.9-.2.6-.5,1.2-.7,1.7,0,.2-.2.6-.5.9,0,0,0,0,0,0,.4-2.1.9-4.2,1.5-6.2.8-2.6,1.7-5.1,2.8-7.6,2-4.3,4.4-8.4,7.6-12,1.6-1.8,3.5-3.5,5.6-4.8,0,0,0,0,0,0h0Z"/>
      <path class="st0" d="M17.4,17.3l-1.7-2.9,3.5,1.5c.4-.3.7-.6.7-.6.6-.5,1.2-1.1,2.2-1.9,0,0,0,0,.2-.1l-1.7-2.2,3,1c.6-.6,1.2-1.1,1.3-1.2,3.3-2.8,6.8-4.6,8.1-5.3,1.6-.8,3.8-1.7,6.4-2.5,0,0,0,0,0,0-3.3-.4-7.5-.4-12.3.8-2.4.6-9.1,2.6-15.2,7.9-1,.9-1.9,1.7-2.7,2.5l.8,1.7-2.1-.3c-.7.8-1.3,1.5-1.9,2.3,0,0-3.2,4-5.6,6.2,0,0,0,0,0,0,1.3,0,3-.1,4.9-.5.4-.1,2.5-.6,5-1.7,2.8-1.3,4.5-2.6,6.2-3.9.2-.2.5-.4.8-.6h0ZM8,19.2c-.4.4-.9.7-1.3,1.1,0,0-.2.1-.4.3,0,0,0,0,0,0,1.1-1.5,2.4-2.8,3.7-4.1,1.6-1.6,3.3-3,5.1-4.4,3.6-2.8,7.7-5.2,12-6.8,1.8-.7,3.7-1.1,5.6-1.4,0,0,0,0,0,0-4.1,1.1-7.9,3-11.5,5.2-3.6,2.3-7,4.9-10.3,7.6-1,.8-1.9,1.6-2.9,2.4h0Z"/>
    </g>
    <rect class="st0" x="343.4" y=".5" width=".9" height="68.9"/>
    <g>
      <path class="st0" d="M375.7,40.8c2.4,0,4.8.5,7.1,1.6v3.4c-2.4-1.2-4.7-1.8-6.9-1.8s-2.7.3-3.8.8c-1.1.6-2,1.4-2.6,2.4-.6,1.1-.9,2.2-.9,3.5,0,2,.7,3.6,2,4.8s3,1.8,5.2,1.8,1.2,0,1.7-.2c.5,0,1.2-.3,1.9-.6v-3.2h-3.2v-2.9h7v8c-1,.7-2.1,1.2-3.4,1.6-1.3.4-2.7.6-4.2.6-2,0-3.9-.4-5.6-1.3s-3-2-3.9-3.5-1.4-3.2-1.4-5.1.5-3.6,1.4-5.2,2.2-2.7,3.9-3.6c1.7-.8,3.5-1.3,5.6-1.3h0Z"/>
      <path class="st0" d="M399.2,41c1.8,0,3.3.5,4.5,1.5s1.7,2.3,1.7,3.9-.3,2.1-.9,2.9-1.4,1.5-2.5,1.9c.6.3,1.2.8,1.6,1.4.5.6,1.1,1.5,1.8,2.9,1.2,2.3,2.1,4,2.6,4.9h-4.2c-.3-.4-.7-1.1-1.2-2-1.1-2.1-1.9-3.5-2.4-4.2-.5-.7-1-1.2-1.4-1.5s-1-.5-1.6-.5h-1.4v8.2h-3.8v-19.4h7ZM398.4,49.3c1,0,1.8-.2,2.3-.7s.8-1.2.8-2-.3-1.5-.8-2c-.5-.4-1.4-.7-2.4-.7h-2.3v5.4h2.4,0Z"/>
      <path class="st0" d="M425.4,41l8.6,19.4h-4l-2-4.7h-8.6l-1.9,4.7h-3.9l8-19.4h3.8,0ZM420.5,52.8h6.3l-3.3-7.7-3,7.7h0Z"/>
      <path class="st0" d="M444.6,41l11.5,13.5v-13.5h3.7v19.4h-3.2l-11.6-13.8v13.8h-3.7v-19.4h3.3,0Z"/>
      <path class="st0" d="M485.2,41v2.9h-6.9v16.5h-3.8v-16.5h-6.9v-2.9h17.5Z"/>
    </g>
  </g>
</svg>