<svg id="Layer_2" xmlns="http://www.w3.org/2000/svg" viewBox="0 0 435.39 127.98"><defs><style>.cls-1{fill:#231f20;stroke-width:0}</style></defs><g id="Layer_1-2"><path class="cls-1" d="M51.29 79.7C17.64 79.7 0 62.06 0 39.85S17.64 0 51.29 0s51.28 17.64 51.28 39.85S84.93 79.7 51.29 79.7m0-13.07c23.63 0 36.26-11.87 36.26-26.79S74.92 13.05 51.29 13.05s-36.26 11.88-36.26 26.8 12.63 26.79 36.26 26.79M202.62 64.02h2.5V1.74h15.03v76.22h-24.5l-53.9-63.15h-2.72v63.15h-15.02V1.74h25.69l52.92 62.28zM289.06 77.96h-15.03V53.13L231.9 1.74h18.51l31.25 38.22 31.25-38.22h18.29l-42.14 51.39v24.83zM386.18 47.69l-29.51 30.27h-19.5l39.21-40.18-35.07-36.04h19.71l25.26 25.92 25.27-25.92h19.49l-35.06 35.93 39.41 40.29h-19.71l-29.5-30.27zM64.77 103.5v2.41h-10.7v8.54h10.34v2.4H54.07v8.69h10.99v2.44H51.38V103.5h13.39zM135.98 103.5v22.01h11.52v2.47h-14.22V103.5h2.7zM214.64 103.5h2.69v24.48h-2.69zM304.6 103.5v2.37h-8.76v22.11h-2.69v-22.11h-8.65v-2.37h20.1zM385.23 103.5v2.41h-10.69v8.54h10.33v2.4h-10.33v8.69h10.98v2.44h-13.68V103.5h13.39z"/></g></svg>