<svg id="Layer_2" xmlns="http://www.w3.org/2000/svg" xmlns:xlink="http://www.w3.org/1999/xlink" viewBox="0 0 616.66 194.99"><defs><linearGradient id="linear-gradient" x1="130.9" y1="5.94" x2="130.9" y2="90.08" gradientUnits="userSpaceOnUse"><stop offset="0" stop-color="#fff"/><stop offset="1" stop-color="#afafb0"/></linearGradient><linearGradient id="linear-gradient-2" x1="260.73" y1="5.94" x2="260.73" y2="90.08" xlink:href="#linear-gradient"/><linearGradient id="linear-gradient-3" x1="378.38" y1="5.94" x2="378.38" y2="90.08" xlink:href="#linear-gradient"/><linearGradient id="linear-gradient-4" x1="490.95" y1="5.94" x2="490.95" y2="90.08" xlink:href="#linear-gradient"/><style>.cls-5{stroke-width:0}.cls-5{fill:#fff}</style></defs><g id="Layer_1-2"><path d="M130.91 85.66c-36.16 0-55.12-18.96-55.12-42.83S94.74 0 130.91 0s55.12 18.96 55.12 42.83-18.96 42.83-55.12 42.83m0-14.04c25.39 0 38.97-12.76 38.97-28.79s-13.58-28.79-38.97-28.79S91.94 26.8 91.94 42.83s13.57 28.79 38.97 28.79" style="stroke-width:0;fill:url(#linear-gradient)"/><path style="fill:url(#linear-gradient-2);stroke-width:0" d="M293.55 68.81h2.69V1.87h16.16v81.92h-26.34l-57.92-67.88h-2.93v67.88h-16.15V1.87h27.62l56.87 66.94z"/><path style="fill:url(#linear-gradient-3);stroke-width:0" d="M386.46 83.79H370.3V57.11L325.02 1.87h19.89l33.59 41.08 33.58-41.08h19.66l-45.28 55.24v26.68z"/><path style="fill:url(#linear-gradient-4);stroke-width:0" d="m490.83 51.25-31.71 32.54h-20.95l42.13-43.18-37.68-38.74h21.18l27.15 27.85L518.1 1.87h20.95l-37.69 38.62 42.36 43.3h-21.18l-31.71-32.54z"/><path class="cls-5" d="M28.42 169.7c-3.64-2.15-7.7-3.31-11.29-3.31-6.86 0-12.37 5.23-12.37 12.27s5.23 12.32 12.55 12.32c2.43 0 3.69-.28 7.19-1.4v-6.63h-6.11v-4.01h10.69v13.44c-3.97 1.82-7.7 2.61-11.67 2.61-12.09 0-17.4-8.54-17.4-16.05 0-8.91 6.81-16.61 17.22-16.61 3.64 0 6.49.65 11.2 2.71v4.67ZM81.41 162.74v31.82h-4.57v-31.82h4.57ZM146.44 162.74v4.11h-12.41v8.82h12.41v4.11h-12.41v14.79h-4.57v-31.82h16.98ZM216.78 162.74v4.01h-11.11v27.81h-4.57v-27.81h-10.92v-4.01h26.6ZM334.22 162.74v4.06h-13.49v9.71h13.02v4.06h-13.02v9.89h13.91v4.11h-18.48v-31.82h18.06ZM382.82 162.74l9.66 22.35 9.43-22.35h4.53L393 194.75h-1.03l-13.72-32.01h4.57ZM468.89 162.74v4.06H455.4v9.71h13.02v4.06H455.4v9.89h13.91v4.11h-18.48v-31.82h18.06ZM519.55 162.74l21.32 24.68v-24.68h4.39v31.82h-3.97l-21.14-24.5v24.5h-4.39v-31.82h3.78ZM616.66 162.74v4.01h-11.11v27.81h-4.57v-27.81h-10.92v-4.01h26.6Z"/></g></svg>