<svg id="Layer_2" xmlns="http://www.w3.org/2000/svg" viewBox="0 0 517.32 172"><defs><style>.cls-11{fill:#000}.cls-11{stroke-width:0}</style></defs><g id="Layer_1-2"><path class="cls-11" d="M111.23 71.44c-30.16 0-45.97-15.81-45.97-35.72S81.07 0 111.23 0s45.97 15.81 45.97 35.72-15.81 35.72-45.97 35.72m0-11.71c21.18 0 32.5-10.64 32.5-24.01s-11.32-24.01-32.5-24.01-32.5 10.64-32.5 24.01 11.32 24.01 32.5 24.01M246.88 57.39h2.24V1.56h13.47v68.32h-21.96l-48.31-56.61h-2.44v56.61h-13.47V1.56h23.03l47.44 55.83zM324.36 69.88h-13.47V47.63L273.12 1.56h16.59l28.01 34.26 28.02-34.26h16.39l-37.77 46.07v22.25zM411.41 42.75l-26.45 27.13h-17.47l35.14-36.01L371.2 1.56h17.67l22.64 23.23 22.64-23.23h17.48L420.2 33.77l35.33 36.11h-17.67l-26.45-27.13z"/><text transform="translate(0 162.27)" style="fill:#000;font-family:var(--font-body);font-size:38.92px;font-weight:500"><tspan x="0" y="0" style="letter-spacing:.88em">G</tspan><tspan x="63" y="0" style="letter-spacing:.88em">I</tspan><tspan x="106.97" y="0" style="letter-spacing:.89em">F</tspan><tspan x="159.95" y="0" style="letter-spacing:.88em">T </tspan><tspan x="262.77" y="0" style="letter-spacing:.89em">E</tspan><tspan x="317.55" y="0" style="letter-spacing:.88em">V</tspan><tspan x="375.25" y="0" style="letter-spacing:.87em">E</tspan><tspan x="429.5" y="0" style="letter-spacing:.87em">N</tspan><tspan x="493.81" y="0" style="letter-spacing:.88em">T</tspan></text></g></svg>