<svg id="Layer_2" xmlns="http://www.w3.org/2000/svg" xmlns:xlink="http://www.w3.org/1999/xlink" viewBox="0 0 619.55 206.23"><defs><linearGradient id="linear-gradient" x1="133" y1="5.94" x2="133" y2="90.08" gradientUnits="userSpaceOnUse"><stop offset="0" stop-color="#fff"/><stop offset="1" stop-color="#afafb0"/></linearGradient><linearGradient id="linear-gradient-2" x1="262.83" y1="5.94" x2="262.83" y2="90.08" xlink:href="#linear-gradient"/><linearGradient id="linear-gradient-3" x1="380.48" y1="5.94" x2="380.48" y2="90.08" xlink:href="#linear-gradient"/><linearGradient id="linear-gradient-4" x1="493.05" y1="5.94" x2="493.05" y2="90.08" xlink:href="#linear-gradient"/></defs><g id="Layer_1-2"><path d="M133.01 85.66c-36.16 0-55.12-18.96-55.12-42.83S96.84 0 133.01 0s55.12 18.96 55.12 42.83-18.96 42.83-55.12 42.83m0-14.04c25.39 0 38.97-12.76 38.97-28.79s-13.58-28.79-38.97-28.79S94.04 26.8 94.04 42.83s13.57 28.79 38.97 28.79" style="stroke-width:0;fill:url(#linear-gradient)"/><path style="fill:url(#linear-gradient-2);stroke-width:0" d="M295.65 68.81h2.69V1.87h16.16v81.92h-26.34l-57.92-67.88h-2.93v67.88h-16.15V1.87h27.62l56.87 66.94z"/><path style="fill:url(#linear-gradient-3);stroke-width:0" d="M388.56 83.79H372.4V57.11L327.12 1.87h19.89l33.59 41.08 33.58-41.08h19.66l-45.28 55.24v26.68z"/><path style="fill:url(#linear-gradient-4);stroke-width:0" d="m492.93 51.25-31.71 32.54h-20.95l42.13-43.18-37.68-38.74h21.18l27.15 27.85L520.2 1.87h20.94l-37.68 38.62 42.36 43.3h-21.18l-31.71-32.54z"/><text transform="translate(0 194.57)" style="fill:#fff;font-family:GillSansNova-Medium,Gill Sans Nova;font-size:46.66px;font-weight:500"><tspan x="0" y="0" style="letter-spacing:.88em">G</tspan><tspan x="75.44" y="0" style="letter-spacing:.88em">I</tspan><tspan x="128.06" y="0" style="letter-spacing:.89em">F</tspan><tspan x="191.49" y="0" style="letter-spacing:.88em">T </tspan><tspan x="314.77" y="0" style="letter-spacing:.88em">E</tspan><tspan x="380.35" y="0" style="letter-spacing:.88em">V</tspan><tspan x="449.43" y="0" style="letter-spacing:.87em">E</tspan><tspan x="514.37" y="0" style="letter-spacing:.87em">N</tspan><tspan x="591.37" y="0" style="letter-spacing:.88em">T</tspan></text></g></svg>